<?xml version="1.0" encoding="UTF-8"?>
<svg version="1.1" xmlns="http://www.w3.org/2000/svg" width="48" height="48">
<path d="M0 0 C1.19786133 -0.03577148 1.19786133 -0.03577148 2.41992188 -0.07226562 C6.73501382 -0.06154046 8.54667889 0.16421625 12.0625 2.87890625 C14.40482578 6.02183166 15.05423494 8.79831043 16.0625 12.5625 C16.76375 13.325625 17.465 14.08875 18.1875 14.875 C21.02968781 18.94880253 20.81619035 22.74641863 20.0625 27.5625 C18.24664376 32.37081321 14.7307597 38.22837015 10.0625 40.5625 C6.79845381 40.85375335 3.52553826 40.84037486 0.25 40.875 C-1.10448242 40.91850586 -1.10448242 40.91850586 -2.48632812 40.96289062 C-6.76024596 41.00371423 -9.24387531 40.98082005 -12.96875 38.734375 C-15.26809787 36.19779283 -16.54489231 33.67928865 -17.9375 30.5625 C-18.5975 29.5725 -19.2575 28.5825 -19.9375 27.5625 C-20.49188934 24.17197148 -20.47457851 20.95513457 -19.9375 17.5625 C-17.5625 14.375 -17.5625 14.375 -14.9375 11.5625 C-14.25494011 9.23376625 -13.58699225 6.90067209 -12.9375 4.5625 C-9.50709429 -0.41337494 -5.55239987 -0.0758159 0 0 Z " fill="#000000" transform="translate(23.9375,3.4375)"/>
</svg>
